<svg height="800" viewBox="0 0 512 512" width="800" xmlns="http://www.w3.org/2000/svg"><path d="m260.847 51.057c-50.003 37.173-168.241 144.492-256.893 144.492-5.836 0-3.486 4.232-3.486 4.232l77.458 32.376-47.118 46.646v77.175l251.153 104.964 230.039-227.753v-77.168zm-192.362 153.368c26.6-9.94 53.389-24.653 79.054-41.188 6.421-4.135 12.738-8.416 18.994-12.73 1.375-.951 2.741-1.886 4.103-2.846 6.063-4.232 12.036-8.506 17.889-12.802.681-.499 1.335-.991 2.016-1.491 5.68-4.192 11.234-8.377 16.676-12.528.734-.565 1.467-1.113 2.193-1.677 6.01-4.612 11.843-9.142 17.502-13.592l204.576 85.503c-53.933 41.067-123.229 87.479-176.38 87.479-3.797 0-7.498-.25-11.012-.75l-127.332-53.208-21.933-9.158zm31.4 36.89 138.155 57.755c5.55.976 11.23 1.443 17.067 1.443 55.598 0 122.83-42.211 177.573-82.842l-157.084 155.511-217.212-90.767zm390.155-17.284-213.134 211.002-224.138-93.67v-18.252l225.561 94.258 211.711-209.598zm0-29.248-213.831 211.703-223.44-93.372v-19.445l225.71 94.323 211.561-209.446z"/><path d="m209.417 233.947c.802.395 1.878.274 2.689-.314l20.4-9.158c2.326-1.04 4.539-2.33 6.602-3.813l65.672-47.532c.806-.589.81-1.242.008-1.644l-14.983-7.433c-.939-.468-2.012-.678-3.217-.612l-26.29.418c-1.201.057-2.007.314-2.818.903l-16.7 12.085c-1.076.782-.677 1.298.661 1.314l24.415-.04.262.129-46.065 33.344-26.68 12.746c-.81.58-.81 1.241-.008 1.636z"/></svg>