<svg height="800" viewBox="0 0 512 512" width="800" xmlns="http://www.w3.org/2000/svg"><path d="m501.1 222.2c-9.3 7.3-240.4 188.8-245.1 192.5 3 2.3-40-31.5-245.1-192.5.4-.4 235.1-214.6 234.6-214.2 5.9-5.4 15-5.4 21 0-3.9-3.6 60.2 55 234.6 214.2z" fill="#fdd267"/><path d="m468.2 60.9v187.1l-192 150.8h-40.3l-192.1-150.8v-187.1c0-8.6 7-15.6 15.6-15.6h393.3c8.5 0 15.5 7 15.5 15.6z" fill="#fff"/><path d="m468.2 60.9v187.1l-192 150.8h-40.3l-1.2-1 190.7-149.8v-187.1c0-8.6-7-15.6-15.6-15.6h42.8c8.6 0 15.6 7 15.6 15.6z" fill="#ededed"/><path d="m501.1 222.2v262.2c0 6.5-2.6 12.4-6.9 16.7s-10.2 7-16.7 7h-443c-6.5 0-12.4-2.7-16.7-7s-6.9-10.1-6.9-16.7v-262.2l159.4 125.2 85.7 67.3 85.7-67.3z" fill="#fddd8d"/><path d="m62.4 508.1h-27.9c-6.5 0-12.4-2.7-16.7-7s-6.9-10.1-6.9-16.7v-262.2l27.8 21.9v240.3c0 6.5 2.6 12.4 6.9 16.7s10.2 7 16.8 7z" fill="#fee8b3"/><path d="m501.1 222.2v262.2c0 6.5-2.6 12.4-6.9 16.7s-10.2 7-16.7 7h-42.8c6.5 0 12.5-2.7 16.7-7 4.3-4.3 6.9-10.1 6.9-16.7v-228.6z" fill="#fdd267"/><path d="m295.4 310.7h-78.7c-6.3 0-12.3 2.5-16.8 7-66 66.5-181.6 183-182.1 183.5 4.3 4.3 10.2 7 16.7 7h443c6.5 0 12.5-2.7 16.7-7-108.2-109-93.2-94-182.1-183.4-4.4-4.6-10.4-7.1-16.7-7.1z" fill="#fdd267"/><path d="m225.9 317.6c-66 66.5-181.6 183-182.1 183.5 4.3 4.3 10.2 7 16.7 7h-26c-6.5 0-12.4-2.7-16.7-7 .5-.5 116.1-116.9 182.1-183.5 4.5-4.5 10.5-7 16.8-7h26c-6.3.1-12.3 2.6-16.8 7z" fill="#fddd8d"/><path d="m494.2 501.1c-4.3 4.3-10.2 7-16.7 7h-42.8c6.5 0 12.5-2.7 16.7-7-108.2-109-93.2-93.9-182-183.4-4.5-4.5-10.5-7-16.8-7h42.8c6.3 0 12.4 2.6 16.8 7 88.8 89.4 73.8 74.4 182 183.4z" fill="#f7b93c"/><g fill="#333"><path d="m505 222.2c0-1.1-.6-2.3-1.3-2.9l-31.6-28.9v-129.5c0-10.8-8.7-19.5-19.5-19.5h-143.7l-38-34.8c-10.9-10-21.2-7.8-30.6.8l-37.1 33.9h-143.8c-10.8 0-19.5 8.7-19.5 19.5v129.5c-19.1 17.4-31.5 28.8-31.6 28.9-.7.6-1.3 1.9-1.3 2.9v262.2c0 15.5 12.5 27.7 27.5 27.7h443c15.2 0 27.6-12.4 27.6-27.6v-262.2zm-7.8 262.2c0 3.9-1.1 7.6-3.2 10.8l-146.4-147.4 149.6-117.4zm-2.2-262.4c-4.4 3.5-12.4 9.8-22.9 18v-38.9zm-246.8-211.1c4.5-4.1 11.2-4.1 15.7 0l.1.1c1.7 1.5 12.2 11.1 33.3 30.4h-82.5c20-18.4 33.2-30.4 33.4-30.5zm-200.5 50c0-6.4 5.2-11.6 11.6-11.6h393.3c6.4 0 11.6 5.2 11.6 11.6 0 25 0 185.8 0 185.3l-122.3 96-27-27.2c-5.2-5.2-12.3-8.2-19.6-8.2h-78.7c-7.4 0-14.3 2.9-19.6 8.1l-27 27.2-122.3-96zm-32.9 423.5v-254.1l149.6 117.4-146.3 147.5c-2.1-3.2-3.3-6.9-3.3-10.8zm25.1-283.3v38.9l-22.9-18c4.2-3.9 12.3-11.3 22.9-20.9zm-5.4 303c-3.6 0-7.8-1.2-10.9-3.3l179.1-180.4c3.7-3.7 8.7-5.8 14-5.8h78.7c5.2 0 10.3 2.1 14 5.8l179 180.4c-2.9 1.9-7.1 3.3-10.9 3.3z"/><path d="m413.4 245.3c2.2 0 3.9-1.8 3.9-3.9 0-2.2-1.8-3.9-3.9-3.9h-314.8c-2.2 0-3.9 1.8-3.9 3.9 0 2.2 1.8 3.9 3.9 3.9z"/><path d="m98.6 199.9h314.8c2.2 0 3.9-1.8 3.9-3.9 0-2.2-1.8-3.9-3.9-3.9h-314.8c-2.2 0-3.9 1.8-3.9 3.9s1.7 3.9 3.9 3.9z"/><path d="m413.4 154.4c2.2 0 3.9-1.8 3.9-3.9 0-2.2-1.8-3.9-3.9-3.9h-314.8c-2.2 0-3.9 1.8-3.9 3.9 0 2.2 1.8 3.9 3.9 3.9z"/><path d="m98.6 109h314.8c2.2 0 3.9-1.8 3.9-3.9 0-2.2-1.8-3.9-3.9-3.9h-314.8c-2.2 0-3.9 1.8-3.9 3.9s1.7 3.9 3.9 3.9z"/></g></svg>