<svg height="800" viewBox="0 0 50 50" width="800" xmlns="http://www.w3.org/2000/svg"><path d="m44.693 41.394-9.313-8.787 2.52-2.52.036.036a1.671 1.671 0 0 0 2.36 0l.656-.655a1.674 1.674 0 0 0 0-2.36l-7.452-7.454a1.718 1.718 0 0 0 -.277-.222v-12.432a2.5 2.5 0 0 0 -2.5-2.5h-23.723a2.5 2.5 0 0 0 -2.5 2.5v36a2.5 2.5 0 0 0 2.5 2.5h23.72a2.5 2.5 0 0 0 2.5-2.5v-6.97l8.173 8.663a2.335 2.335 0 0 0 1.657.807h.029a2.338 2.338 0 0 0 1.614-4.106z" fill="#231f20"/><path d="m30.72 44.5h-2.08a2.574 2.574 0 0 0 -2.546-2.263h-.027a2 2 0 0 0 -1.992-1.937h-10.431a2 2 0 0 0 -1.991 1.938h-.027a2.573 2.573 0 0 0 -2.546 2.262h-2.08a1.5 1.5 0 0 1 -1.5-1.5v-36a1.5 1.5 0 0 1 1.5-1.5h23.72a1.5 1.5 0 0 1 1.5 1.5v12.175a1.656 1.656 0 0 0 -1.082.479l-.655.656a1.667 1.667 0 0 0 0 2.359l.036.037-7.519 7.523-.037-.036a1.669 1.669 0 0 0 -2.359 0l-.655.656a1.667 1.667 0 0 0 0 2.359l7.451 7.454a1.668 1.668 0 0 0 2.36 0l.655-.655a1.672 1.672 0 0 0 0-2.36l-.036-.036 1.844-1.844v7.233a1.5 1.5 0 0 1 -1.503 1.5z" fill="#fff"/><g fill="#231f20"><path d="m10.863 12.761h15.994a.5.5 0 0 0 0-1h-15.994a.5.5 0 0 0 0 1z"/><path d="m10.863 18.307h15.994a.5.5 0 0 0 0-1h-15.994a.5.5 0 0 0 0 1z"/><path d="m10.863 23.854h15.994a.5.5 0 0 0 0-1h-15.994a.5.5 0 0 0 0 1z"/><path d="m10.863 29.4h9.207a.5.5 0 0 0 0-1h-9.207a.5.5 0 0 0 0 1z"/><path d="m18.77 33.946h-7.907a.5.5 0 0 0 0 1h7.907a.5.5 0 0 0 0-1z"/></g><path d="m25.127 25.939h10.641v8.439h-10.641z" fill="#ff8e5a" transform="matrix(.70710678 -.70710678 .70710678 .70710678 -12.407 30.363)"/><path d="m29.705 38.354a.669.669 0 0 1 0 .946l-.655.655a.684.684 0 0 1 -.946 0l-7.453-7.455a.668.668 0 0 1 0-.945l.655-.656a.67.67 0 0 1 .945 0z" fill="#ffba50"/><path d="m40.245 27.815a.671.671 0 0 1 0 .946l-.656.655a.67.67 0 0 1 -.946 0l-7.453-7.454a.668.668 0 0 1 0-.945l.655-.656a.67.67 0 0 1 .945 0z" fill="#ffba50"/><path d="m26.094 43.237a1.582 1.582 0 0 1 1.546 1.263h-17.56a1.581 1.581 0 0 1 1.546-1.263z" fill="#ff8e5a"/><path d="m12.659 42.237a.991.991 0 0 1 .985-.938h10.431a.992.992 0 0 1 .986.938z" fill="#ff8e5a"/><path d="m44.035 44.035a1.321 1.321 0 0 1 -.971.465 1.347 1.347 0 0 1 -.943-.493l-8.806-9.334 1.358-1.358 9.334 8.806a1.351 1.351 0 0 1 .493.943 1.406 1.406 0 0 1 -.465.971z" fill="#ffba50"/></svg>