<!DOCTYPE svg PUBLIC "-//W3C//DTD SVG 1.1//EN" "http://www.w3.org/Graphics/SVG/1.1/DTD/svg11.dtd">
<!-- Uploaded to: SVG Repo, www.svgrepo.com, Transformed by: SVG Repo Mixer Tools -->
<svg version="1.1" id="Layer_1" xmlns="http://www.w3.org/2000/svg" xmlns:xlink="http://www.w3.org/1999/xlink" viewBox="0 0 392.663 392.663" xml:space="preserve" width="800px" height="800px" fill="#000000">
<g id="SVGRepo_bgCarrier" stroke-width="0"/>
<g id="SVGRepo_tracerCarrier" stroke-linecap="round" stroke-linejoin="round"/>
<g id="SVGRepo_iconCarrier"> <path style="fill:#FFFFFF;" d="M360.986,123.248h-62.578v14.998c0,6.012-4.848,10.925-10.925,10.925H104.921 c-6.012,0-10.925-4.848-10.925-10.925v-14.998H31.418c-5.301,0-9.632,4.331-9.632,9.632v208.485c0,5.301,4.331,9.632,9.632,9.632 h329.568c5.301,0,9.632-4.331,9.632-9.632V133.01C370.747,127.58,366.416,123.248,360.986,123.248z"/> <polyline style="fill:#d5d3ee;" points="43.572,145.099 43.572,329.341 348.962,329.341 348.962,145.099 "/> <g> <path style="fill:#194F82;" d="M318.642,288.162H203.313c-6.012,0-10.925,4.849-10.925,10.925c0,6.012,4.848,10.925,10.925,10.925 h115.265c6.012,0,10.925-4.848,10.925-10.925C329.568,293.075,324.719,288.162,318.642,288.162z"/> <path style="fill:#194F82;" d="M318.642,172.057H203.313c-6.012,0-10.925,4.848-10.925,10.925c0,6.012,4.848,10.925,10.925,10.925 h115.265c6.012,0,10.925-4.848,10.925-10.925C329.503,176.905,324.719,172.057,318.642,172.057z"/> <path style="fill:#194F82;" d="M318.642,230.044H203.313c-6.012,0-10.925,4.848-10.925,10.925c0,6.077,4.848,10.925,10.925,10.925 h115.265c6.012,0,10.925-4.848,10.925-10.925C329.503,234.893,324.719,230.044,318.642,230.044z"/> <path style="fill:#194F82;" d="M360.986,101.463h-62.578V82.521c0-6.012-4.848-10.925-10.925-10.925h-30.061l-23.273-46.028 c-1.875-3.685-5.624-5.947-9.762-5.947h-56.436c-4.073,0-7.887,2.327-9.762,5.947l-23.273,46.028h-30.061 c-6.012,0-10.925,4.848-10.925,10.925v18.941H31.547C14.158,101.463,0,115.62,0,133.01v208.485 c0,17.39,14.158,31.547,31.547,31.547h329.568c17.39,0,31.547-14.158,31.547-31.547V133.01 C392.533,115.62,378.376,101.463,360.986,101.463z M174.804,41.471h43.055l15.321,30.19h-73.632L174.804,41.471z M115.846,93.446 h160.776v33.939H115.846V93.446z M370.747,341.43c0,5.301-4.331,9.632-9.632,9.632H31.547c-5.301,0-9.632-4.331-9.632-9.632V133.01 c0-5.301,4.331-9.632,9.632-9.632h62.578v14.998c0,6.012,4.848,10.925,10.925,10.925h182.626c6.012,0,10.925-4.848,10.925-10.925 v-14.998h62.513c5.301,0,9.632,4.331,9.632,9.632V341.43L370.747,341.43z"/> </g> <rect x="115.846" y="93.446" style="fill:#56ACE0;" width="160.776" height="33.939"/> <g> <polygon style="fill:#FFFFFF;" points="217.729,41.471 174.804,41.471 159.483,71.661 233.051,71.661 "/> <path style="fill:#FFFFFF;" d="M108.8,190.028c-7.887,0-14.287,6.4-14.287,14.287c0,7.887,6.4,14.287,14.287,14.287 s14.287-6.4,14.287-14.287C123.022,196.428,116.687,190.028,108.8,190.028z"/> </g> <path style="fill:#194F82;" d="M108.8,168.242c-19.846,0-36.073,16.162-36.073,36.073s16.162,36.073,36.073,36.073 c19.846,0,36.073-16.162,36.073-36.073S128.646,168.242,108.8,168.242z M108.8,218.602c-7.887,0-14.287-6.4-14.287-14.287 c0-7.887,6.4-14.287,14.287-14.287s14.287,6.4,14.287,14.287C123.022,212.202,116.687,218.602,108.8,218.602z"/> <path style="fill:#56ACE0;" d="M108.8,273.487c-22.044,0-40.469,15.709-44.8,36.461h89.6 C149.204,289.131,130.844,273.487,108.8,273.487z"/> <path style="fill:#194F82;" d="M108.8,251.701c-37.236,0-67.62,30.319-67.62,67.62c0,0.517,0,1.099,0.065,1.875 c0.129,5.947,4.978,10.667,10.925,10.667h113.196c5.689,0,10.537-5.172,10.925-10.925c0-0.517,0.065-1.099,0.065-1.616 C176.356,282.02,146.036,251.701,108.8,251.701z M64,309.947c4.331-20.816,22.82-36.461,44.8-36.461s40.469,15.58,44.8,36.461H64z"/> </g>
</svg>