<svg height="800" viewBox="0 0 50 50" width="800" xmlns="http://www.w3.org/2000/svg"><rect fill="#231f20" height="41" rx="2.5" width="41" x="4.5" y="4.5"/><path d="m5.5 43v-29.965h39v28.527l-6.841-6.841a1.367 1.367 0 0 0 -1.2-.346l-2.86-2.86a10.846 10.846 0 1 0 -2.084 2.085l2.851 2.851a1.381 1.381 0 0 0 -.047.237 1.358 1.358 0 0 0 .4.97l6.843 6.842h-34.562a1.5 1.5 0 0 1 -1.5-1.5z" fill="#fff"/><circle cx="25" cy="25" fill="#ffba50" r="9.806"/><path d="m32.957 32.285 2.6 2.6-.672.672-2.6-2.6q.351-.321.672-.672z" fill="#c6b9c4"/><path d="m35.428 36.43 1-1a.368.368 0 0 1 .523 0l7.424 7.425a.368.368 0 0 1 0 .521l-1 1a.375.375 0 0 1 -.522 0l-7.424-7.424a.367.367 0 0 1 0-.522z" fill="#8d7f89"/><circle cx="25" cy="25" fill="#231f20" r="8.037"/><circle cx="25" cy="25" fill="#fff" r="7.037"/><g fill="#231f20"><path d="m25 23.551a.5.5 0 0 0 -.5.5v3.4a.5.5 0 1 0 1 0v-3.4a.5.5 0 0 0 -.5-.5z"/><path d="m25 22.047a.521.521 0 0 0 -.5.524.5.5 0 0 0 1 0v-.048a.48.48 0 0 0 -.5-.476z"/><path d="m19.024 9.253h11.952a.5.5 0 0 0 0-1h-11.952a.5.5 0 0 0 0 1z"/></g><path d="m7 5.5h36a1.5 1.5 0 0 1 1.5 1.5v5.035h-39v-5.035a1.5 1.5 0 0 1 1.5-1.5z" fill="#ff8e5a"/><circle cx="7.986" cy="8.753" fill="#231f20" r=".502"/><path d="m10.527 9.255a.5.5 0 1 0 -.5-.5.5.5 0 0 0 .5.5z" fill="#231f20"/><circle cx="13.021" cy="8.753" fill="#231f20" r=".502"/></svg>